<?xml version="1.0" standalone="no"?>
<!DOCTYPE svg PUBLIC "-//W3C//DTD SVG 20010904//EN"
 "http://www.w3.org/TR/2001/REC-SVG-20010904/DTD/svg10.dtd">
<svg version="1.0" xmlns="http://www.w3.org/2000/svg"
 width="800.000000pt" height="1422.000000pt" viewBox="0 0 800.000000 1422.000000"
 preserveAspectRatio="xMidYMid meet">

<g transform="translate(0.000000,1422.000000) scale(0.100000,-0.100000)"
fill="#000000" stroke="none">
<path d="M0 7110 l0 -7110 4000 0 4000 0 0 7110 0 7110 -4000 0 -4000 0 0
-7110z m6450 6278 c156 -42 301 -145 389 -276 54 -80 98 -186 110 -266 6 -33
12 -225 15 -426 6 -398 0 -466 -44 -502 -47 -38 -102 -18 -131 49 -18 41 -19
71 -19 421 0 412 -6 468 -57 572 -58 116 -204 230 -333 259 -25 5 -174 11
-332 12 l-288 3 -29 -28 c-18 -18 -35 -50 -46 -88 -30 -108 -114 -223 -200
-273 -22 -13 -69 -33 -105 -46 -64 -21 -72 -22 -620 -20 -305 1 -609 4 -675 6
-66 2 -379 7 -695 10 -573 7 -575 7 -675 32 -55 14 -108 26 -117 26 -9 1 -15
4 -13 8 3 3 -6 11 -19 17 -36 16 -94 70 -126 117 -36 52 -70 152 -70 204 0 22
-5 43 -10 46 -7 4 -8 -3 -4 -21 5 -19 4 -25 -5 -20 -6 4 -11 15 -11 26 0 10
-15 27 -32 39 -26 16 -29 21 -14 21 11 0 29 -8 40 -17 l21 -18 -19 23 -20 23
-360 -3 c-349 -3 -363 -4 -426 -26 -214 -77 -366 -270 -386 -492 -5 -53 -11
-70 -22 -70 -12 0 -14 12 -9 73 9 105 39 191 97 279 84 129 208 220 353 261
64 18 109 21 415 25 256 3 351 1 373 -8 44 -19 72 -65 80 -132 9 -74 47 -171
65 -164 7 3 20 -6 28 -20 9 -13 14 -24 10 -24 -4 0 -1 -7 6 -15 7 -8 16 -12
22 -9 12 8 60 -25 53 -36 -4 -6 1 -7 11 -3 13 5 15 3 9 -7 -6 -9 -4 -11 4 -6
7 5 29 5 49 1 32 -6 34 -9 17 -16 -17 -8 -16 -9 5 -4 35 8 928 24 1830 34 852
9 812 5 896 88 49 48 77 104 89 173 7 43 52 141 68 148 4 2 13 9 20 16 32 32
85 41 277 46 305 8 473 2 560 -22z m-3747 -575 c-7 -2 -19 -2 -25 0 -7 3 -2 5
12 5 14 0 19 -2 13 -5z m-1565 -125 c-2 -7 7 -14 20 -16 25 -4 62 -35 62 -52
0 -5 6 -10 13 -10 6 0 19 -15 27 -32 12 -29 14 -418 14 -2828 0 -2681 -4
-3128 -34 -4520 -6 -250 -15 -727 -20 -1060 -14 -835 -28 -1494 -36 -1627 -5
-104 -16 -139 -27 -95 -3 9 -5 -2 -6 -25 -1 -39 -3 -43 -26 -43 -22 0 -25 4
-25 35 0 19 -5 35 -11 35 -5 0 -7 -6 -3 -12 6 -10 4 -10 -7 -1 -17 16 -22 193
-49 1658 -11 611 -25 1337 -31 1615 -22 1040 -26 1852 -24 4310 2 2261 4 2529
18 2555 20 39 75 95 94 95 7 0 16 7 19 15 7 18 35 20 32 3z m5746 -1030 c3
-101 13 -1108 21 -2238 16 -2262 21 -2894 35 -4555 5 -616 13 -1580 16 -2142
l7 -1021 -31 -31 c-46 -47 -112 -38 -145 19 -16 26 -16 113 -7 1202 5 645 14
1774 20 2508 5 734 15 1859 20 2500 10 1080 30 3636 30 3848 0 72 3 92 14 92
11 0 15 -36 20 -182z m-5713 -9371 c39 -30 40 -44 33 -444 -7 -423 -4 -462 51
-576 72 -153 244 -275 411 -291 32 -4 552 -11 1154 -16 602 -5 1640 -15 2305
-21 1105 -10 1216 -10 1279 5 161 38 310 154 380 297 40 82 66 174 66 231 0
39 17 60 30 37 10 -16 3 -94 -16 -173 -37 -154 -170 -319 -315 -389 -136 -67
-150 -69 -594 -73 -1403 -15 -2592 -25 -3400 -31 -1044 -7 -984 -10 -1142 67
-147 73 -278 225 -333 390 -20 59 -23 96 -32 405 -5 187 -8 389 -6 448 3 100
5 110 27 128 26 21 78 25 102 6z"/>
<path d="M2500 13031 c0 -6 4 -13 10 -16 6 -3 7 1 4 9 -7 18 -14 21 -14 7z"/>
<path d="M2908 12903 c18 -2 45 -2 60 0 15 2 0 4 -33 4 -33 0 -45 -2 -27 -4z"/>
<path d="M2838 12813 c23 -2 61 -2 85 0 23 2 4 4 -43 4 -47 0 -66 -2 -42 -4z"/>
</g>
</svg>
